# xmcd
#
# Track frame offsets: 
#        150
#        11886
#        23142
#        33446
#        44295
#        53690
#        64217
#        74744
#        87440
#        97186
#        109804
#        119867
#        129732
#        140063
#        150404
#        162526
#        172926
#        182960
#        194972
#        207255
#        216601
#        229379
#        239011
#        250561
#        262744
#        274133
#        283704
#        293348
#        302904
#        313208
#
# Disc length: 4331 seconds
#
# Revision: 0
# Processed by: cddbd v1.5.2PL0 Copyright (c) Steve Scherf et al.
# Submitted via: ExactAudioCopy v0.95b3
#
DISCID=e110e91e
DTITLE=Gene Vincent  - Box Set-1994-Cd 2-Dance to the bop - 320K
DYEAR=1900
DGENRE=
TTITLE0=Pink Thunderbird
TTITLE1=Pretty Pretty Baby
TTITLE2=Cruisin'
TTITLE3=Important Words ('56)
TTITLE4=You Better Believe
TTITLE5=Red Bluejeans and A Ponytail
TTITLE6=Red Bluejeans and A Ponytail
TTITLE7=Five Days, Five Days
TTITLE8=I Got It
TTITLE9=Wear My Ring
TTITLE10=Lotta Lovin'
TTITLE11=Rollin' Danny
TTITLE12=Time Will Bring You Everything
TTITLE13=True To You
TTITLE14=In My Dreams
TTITLE15=Dance To The Bop
TTITLE16=Your Cheatin' Heart
TTITLE17=Baby Blue
TTITLE18=Walkin' Home From School
TTITLE19=It's No Lie
TTITLE20=Should I Ever Love Again
TTITLE21=Flea Brain
TTITLE22=Brand New Beat
TTITLE23=Frankie and Johnnie
TTITLE24=You Belong To Me
TTITLE25=Keep It A Secret
TTITLE26=Yes I Love You Baby
TTITLE27=By The Light Of The Silvery Moon
TTITLE28=Right Now
TTITLE29=You'll Never Walk Alone
EXTD=
EXTT0=
EXTT1=
EXTT2=
EXTT3=
EXTT4=
EXTT5=
EXTT6=
EXTT7=
EXTT8=
EXTT9=
EXTT10=
EXTT11=
EXTT12=
EXTT13=
EXTT14=
EXTT15=
EXTT16=
EXTT17=
EXTT18=
EXTT19=
EXTT20=
EXTT21=
EXTT22=
EXTT23=
EXTT24=
EXTT25=
EXTT26=
EXTT27=
EXTT28=
EXTT29=
PLAYORDER=
